ffmpeg started on 2025-05-25 at 18:51:38
Report written to "D:\Convert\FFMetrics\reports\ssim_report-6.txt"
Log level: 32
Command line:
ffmpeg -hide_banner -nostdin -i "G:\\\xc0\xed\xe8\xec\xe5\\\xce\xed\xe3\xee\xe8\xed\xe3\xe8\\!_34_\xc2\xe5\xf1\xed\xe0_2024\\JamClub\\\xc1\xee\xf0\xfc\xe1\xe0 \xe2 \xef\xf0\xff\xec\xee\xec \xfd\xf4\xe8\xf0\xe5\\[JAM_CLUB]_Kenka_Dokugaku_03_[1080p][RUS][DUB]_HEVC.mkv" -i "G:\\\xc0\xed\xe8\xec\xe5\\\xce\xed\xe3\xee\xe8\xed\xe3\xe8\\!_34_\xc2\xe5\xf1\xed\xe0_2024\\JamClub\\\xc1\xee\xf0\xfc\xe1\xe0 \xe2 \xef\xf0\xff\xec\xee\xec \xfd\xf4\xe8\xf0\xe5\\[JAM_CLUB]_Kenka_Dokugaku_03_[1080p][RUS][DUB].mp4" -lavfi "[0:v]settb=AVTB,setpts=PTS-STARTPTS,format=pix_fmts=yuv420p10,fps=24000/1001,scale=1920:1080:flags=bicubic[main];[1:v]settb=AVTB,setpts=PTS-STARTPTS,format=pix_fmts=yuv420p,fps=24000/1001,scale=1920:1080:flags=bicubic[ref];[main][ref]ssim=eof_action=endall:stats_file='D\\:/Convert/FFMetrics/logs/ssim_logfile-6.txt'" -f null -
Input #0, matroska,webm, from 'G:\Аниме\Онгоинги\!_34_Весна_2024\JamClub\Борьба в прямом эфире\[JAM_CLUB]_Kenka_Dokugaku_03_[1080p][RUS][DUB]_HEVC.mkv':
  Metadata:
    COMPATIBLE_BRANDS: isomiso2avc1mp41
    MAJOR_BRAND     : isom
    MINOR_VERSION   : 512
    ENCODER         : Lavf61.7.100
  Duration: 00:23:17.31, start: -0.021000, bitrate: 1361 kb/s
  Stream #0:0: Video: hevc (Main 10), yuv420p10le(tv, bt709, progressive), 1920x1080 [SAR 1:1 DAR 16:9], 23.98 fps, 23.98 tbr, 1k tbn (default)
      Metadata:
        HANDLER_NAME    : VideoHandler
        VENDOR_ID       : [0][0][0][0]
        ENCODER         : Lavc61.19.100 libx265
        BPS             : 1162761
        DURATION        : 00:23:17.145708333
        NUMBER_OF_FRAMES: 33498
        NUMBER_OF_BYTES : 203068289
        _STATISTICS_WRITING_APP: mkvpropedit v66.0.0 ('Josie') 64-bit
        _STATISTICS_WRITING_DATE_UTC: 2025-05-25 13:03:12
        _STATISTICS_TAGS: BPS DURATION NUMBER_OF_FRAMES NUMBER_OF_BYTES
  Stream #0:1(eng): Audio: aac (LC), 48000 Hz, stereo, fltp (default)
      Metadata:
        HANDLER_NAME    : SoundHandler
        VENDOR_ID       : [0][0][0][0]
        ENCODER         : Lavc61.19.100 aac
        BPS             : 194960
        DURATION        : 00:23:17.293000000
        NUMBER_OF_FRAMES: 65499
        NUMBER_OF_BYTES : 34052044
        _STATISTICS_WRITING_APP: mkvpropedit v66.0.0 ('Josie') 64-bit
        _STATISTICS_WRITING_DATE_UTC: 2025-05-25 13:03:12
        _STATISTICS_TAGS: BPS DURATION NUMBER_OF_FRAMES NUMBER_OF_BYTES
Input #1, mov,mp4,m4a,3gp,3g2,mj2, from 'G:\Аниме\Онгоинги\!_34_Весна_2024\JamClub\Борьба в прямом эфире\[JAM_CLUB]_Kenka_Dokugaku_03_[1080p][RUS][DUB].mp4':
  Metadata:
    major_brand     : isom
    minor_version   : 512
    compatible_brands: isomiso2avc1mp41
    encoder         : Lavf60.16.100
  Duration: 00:23:17.29, start: 0.000000, bitrate: 4322 kb/s
  Stream #1:0[0x1](und): Video: h264 (High) (avc1 / 0x31637661), yuv420p(tv, bt709, progressive), 1920x1080 [SAR 1:1 DAR 16:9], 4125 kb/s, 23.98 fps, 23.98 tbr, 90k tbn (default)
      Metadata:
        handler_name    : VideoHandler
        vendor_id       : [0][0][0][0]
  Stream #1:1[0x2](eng): Audio: aac (LC) (mp4a / 0x6134706D), 48000 Hz, stereo, fltp, 191 kb/s (default)
      Metadata:
        handler_name    : SoundHandler
        vendor_id       : [0][0][0][0]
Stream mapping:
  Stream #0:0 (hevc) -> settb:default
  Stream #1:0 (h264) -> settb:default
  ssim:default -> Stream #0:0 (wrapped_avframe)
  Stream #0:1 -> #0:1 (aac (native) -> pcm_s16le (native))
Output #0, null, to 'pipe:':
  Metadata:
    COMPATIBLE_BRANDS: isomiso2avc1mp41
    MAJOR_BRAND     : isom
    MINOR_VERSION   : 512
    encoder         : Lavf61.7.100
  Stream #0:0: Video: wrapped_avframe, yuv420p10le(tv, bt709, progressive), 1920x1080 [SAR 1:1 DAR 16:9], q=2-31, 200 kb/s, 23.98 fps, 23.98 tbn
      Metadata:
        encoder         : Lavc61.19.100 wrapped_avframe
  Stream #0:1(eng): Audio: pcm_s16le, 48000 Hz, stereo, s16, 1536 kb/s (default)
      Metadata:
        HANDLER_NAME    : SoundHandler
        VENDOR_ID       : [0][0][0][0]
        _STATISTICS_TAGS: BPS DURATION NUMBER_OF_FRAMES NUMBER_OF_BYTES
        BPS             : 194960
        DURATION        : 00:23:17.293000000
        NUMBER_OF_FRAMES: 65499
        NUMBER_OF_BYTES : 34052044
        _STATISTICS_WRITING_APP: mkvpropedit v66.0.0 ('Josie') 64-bit
        _STATISTICS_WRITING_DATE_UTC: 2025-05-25 13:03:12
        encoder         : Lavc61.19.100 pcm_s16le
frame=  121 fps=0.0 q=-0.0 size=N/A time=00:00:05.04 bitrate=N/A speed=9.88x    frame=  289 fps=283 q=-0.0 size=N/A time=00:00:12.05 bitrate=N/A speed=11.8x    frame=  514 fps=333 q=-0.0 size=N/A time=00:00:21.43 bitrate=N/A speed=13.9x    frame=  746 fps=363 q=-0.0 size=N/A time=00:00:31.11 bitrate=N/A speed=15.1x    frame=  976 fps=379 q=-0.0 size=N/A time=00:00:40.70 bitrate=N/A speed=15.8x    frame= 1197 fps=388 q=-0.0 size=N/A time=00:00:49.92 bitrate=N/A speed=16.2x    frame= 1425 fps=395 q=-0.0 size=N/A time=00:00:59.43 bitrate=N/A speed=16.5x    frame= 1636 fps=398 q=-0.0 size=N/A time=00:01:08.23 bitrate=N/A speed=16.6x    frame= 1834 fps=396 q=-0.0 size=N/A time=00:01:16.49 bitrate=N/A speed=16.5x    frame= 2054 fps=399 q=-0.0 size=N/A time=00:01:25.66 bitrate=N/A speed=16.7x    frame= 2279 fps=402 q=-0.0 size=N/A time=00:01:35.05 bitrate=N/A speed=16.8x    frame= 2496 fps=404 q=-0.0 size=N/A time=00:01:44.10 bitrate=N/A speed=16.8x    frame= 2691 fps=402 q=-0.0 size=N/A time=00:01:52.23 bitrate=N/A speed=16.8x    frame= 2910 fps=403 q=-0.0 size=N/A time=00:02:01.37 bitrate=N/A speed=16.8x    frame= 3122 fps=404 q=-0.0 size=N/A time=00:02:10.21 bitrate=N/A speed=16.9x    frame= 3373 fps=409 q=-0.0 size=N/A time=00:02:20.68 bitrate=N/A speed=17.1x    frame= 3591 fps=410 q=-0.0 size=N/A time=00:02:29.77 bitrate=N/A speed=17.1x    frame= 3834 fps=414 q=-0.0 size=N/A time=00:02:39.90 bitrate=N/A speed=17.2x    frame= 4077 fps=416 q=-0.0 size=N/A time=00:02:50.04 bitrate=N/A speed=17.4x    frame= 4313 fps=419 q=-0.0 size=N/A time=00:02:59.88 bitrate=N/A speed=17.5x    frame= 4548 fps=420 q=-0.0 size=N/A time=00:03:09.68 bitrate=N/A speed=17.5x    frame= 4721 fps=416 q=-0.0 size=N/A time=00:03:16.90 bitrate=N/A speed=17.4x    frame= 4894 fps=413 q=-0.0 size=N/A time=00:03:24.12 bitrate=N/A speed=17.2x    frame= 5147 fps=416 q=-0.0 size=N/A time=00:03:34.67 bitrate=N/A speed=17.4x    frame= 5421 fps=421 q=-0.0 size=N/A time=00:03:46.10 bitrate=N/A speed=17.6x    frame= 5661 fps=423 q=-0.0 size=N/A time=00:03:56.11 bitrate=N/A speed=17.6x    frame= 5918 fps=425 q=-0.0 size=N/A time=00:04:06.82 bitrate=N/A speed=17.7x    frame= 6086 fps=422 q=-0.0 size=N/A time=00:04:13.83 bitrate=N/A speed=17.6x    frame= 6251 fps=418 q=-0.0 size=N/A time=00:04:20.71 bitrate=N/A speed=17.4x    frame= 6481 fps=419 q=-0.0 size=N/A time=00:04:30.31 bitrate=N/A speed=17.5x    frame= 6716 fps=420 q=-0.0 size=N/A time=00:04:40.11 bitrate=N/A speed=17.5x    frame= 6839 fps=415 q=-0.0 size=N/A time=00:04:45.24 bitrate=N/A speed=17.3x    frame= 7027 fps=413 q=-0.0 size=N/A time=00:04:53.08 bitrate=N/A speed=17.2x    frame= 7197 fps=411 q=-0.0 size=N/A time=00:05:00.17 bitrate=N/A speed=17.1x    frame= 7459 fps=413 q=-0.0 size=N/A time=00:05:11.14 bitrate=N/A speed=17.2x    frame= 7603 fps=410 q=-0.0 size=N/A time=00:05:17.10 bitrate=N/A speed=17.1x    frame= 7806 fps=409 q=-0.0 size=N/A time=00:05:25.57 bitrate=N/A speed=17.1x    frame= 7991 fps=408 q=-0.0 size=N/A time=00:05:33.29 bitrate=N/A speed=  17x    frame= 8150 fps=405 q=-0.0 size=N/A time=00:05:39.92 bitrate=N/A speed=16.9x    frame= 8371 fps=406 q=-0.0 size=N/A time=00:05:49.14 bitrate=N/A speed=16.9x    frame= 8618 fps=408 q=-0.0 size=N/A time=00:05:59.44 bitrate=N/A speed=  17x    frame= 8835 fps=408 q=-0.0 size=N/A time=00:06:08.49 bitrate=N/A speed=  17x    frame= 9013 fps=407 q=-0.0 size=N/A time=00:06:15.91 bitrate=N/A speed=  17x    frame= 9259 fps=408 q=-0.0 size=N/A time=00:06:26.17 bitrate=N/A speed=  17x    frame= 9470 fps=408 q=-0.0 size=N/A time=00:06:34.97 bitrate=N/A speed=  17x    frame= 9675 fps=408 q=-0.0 size=N/A time=00:06:43.52 bitrate=N/A speed=  17x    frame= 9887 fps=408 q=-0.0 size=N/A time=00:06:52.37 bitrate=N/A speed=  17x    frame=10107 fps=408 q=-0.0 size=N/A time=00:07:01.54 bitrate=N/A speed=  17x    frame=10362 fps=410 q=-0.0 size=N/A time=00:07:12.18 bitrate=N/A speed=17.1x    frame=10594 fps=411 q=-0.0 size=N/A time=00:07:21.85 bitrate=N/A speed=17.1x    frame=10855 fps=412 q=-0.0 size=N/A time=00:07:32.74 bitrate=N/A speed=17.2x    frame=11089 fps=413 q=-0.0 size=N/A time=00:07:42.50 bitrate=N/A speed=17.2x    frame=11281 fps=412 q=-0.0 size=N/A time=00:07:50.51 bitrate=N/A speed=17.2x    frame=11480 fps=412 q=-0.0 size=N/A time=00:07:58.81 bitrate=N/A speed=17.2x    frame=11703 fps=412 q=-0.0 size=N/A time=00:08:08.11 bitrate=N/A speed=17.2x    frame=11976 fps=414 q=-0.0 size=N/A time=00:08:19.49 bitrate=N/A speed=17.3x    frame=12241 fps=416 q=-0.0 size=N/A time=00:08:30.55 bitrate=N/A speed=17.4x    frame=12544 fps=419 q=-0.0 size=N/A time=00:08:43.18 bitrate=N/A speed=17.5x    frame=12798 fps=420 q=-0.0 size=N/A time=00:08:53.78 bitrate=N/A speed=17.5x    frame=13054 fps=422 q=-0.0 size=N/A time=00:09:04.46 bitrate=N/A speed=17.6x    frame=13342 fps=424 q=-0.0 size=N/A time=00:09:16.47 bitrate=N/A speed=17.7x    frame=13619 fps=426 q=-0.0 size=N/A time=00:09:28.02 bitrate=N/A speed=17.7x    frame=13878 fps=427 q=-0.0 size=N/A time=00:09:38.82 bitrate=N/A speed=17.8x    frame=14058 fps=425 q=-0.0 size=N/A time=00:09:46.33 bitrate=N/A speed=17.7x    frame=14319 fps=426 q=-0.0 size=N/A time=00:09:57.22 bitrate=N/A speed=17.8x    frame=14574 fps=428 q=-0.0 size=N/A time=00:10:07.85 bitrate=N/A speed=17.8x    frame=14836 fps=429 q=-0.0 size=N/A time=00:10:18.78 bitrate=N/A speed=17.9x    frame=15109 fps=430 q=-0.0 size=N/A time=00:10:30.17 bitrate=N/A speed=17.9x    frame=15369 fps=431 q=-0.0 size=N/A time=00:10:41.01 bitrate=N/A speed=  18x    frame=15638 fps=433 q=-0.0 size=N/A time=00:10:52.23 bitrate=N/A speed=  18x    frame=15910 fps=434 q=-0.0 size=N/A time=00:11:03.57 bitrate=N/A speed=18.1x    frame=16159 fps=435 q=-0.0 size=N/A time=00:11:13.96 bitrate=N/A speed=18.1x    frame=16420 fps=436 q=-0.0 size=N/A time=00:11:24.85 bitrate=N/A speed=18.2x    frame=16659 fps=436 q=-0.0 size=N/A time=00:11:34.81 bitrate=N/A speed=18.2x    frame=16946 fps=438 q=-0.0 size=N/A time=00:11:46.78 bitrate=N/A speed=18.2x    frame=17220 fps=439 q=-0.0 size=N/A time=00:11:58.21 bitrate=N/A speed=18.3x    frame=17499 fps=440 q=-0.0 size=N/A time=00:12:09.85 bitrate=N/A speed=18.4x    frame=17725 fps=440 q=-0.0 size=N/A time=00:12:19.28 bitrate=N/A speed=18.4x    frame=17981 fps=441 q=-0.0 size=N/A time=00:12:29.95 bitrate=N/A speed=18.4x    frame=18206 fps=441 q=-0.0 size=N/A time=00:12:39.34 bitrate=N/A speed=18.4x    frame=18491 fps=442 q=-0.0 size=N/A time=00:12:51.22 bitrate=N/A speed=18.4x    frame=18760 fps=443 q=-0.0 size=N/A time=00:13:02.44 bitrate=N/A speed=18.5x    frame=18975 fps=443 q=-0.0 size=N/A time=00:13:11.41 bitrate=N/A speed=18.5x    frame=19199 fps=443 q=-0.0 size=N/A time=00:13:20.75 bitrate=N/A speed=18.5x    frame=19442 fps=443 q=-0.0 size=N/A time=00:13:30.89 bitrate=N/A speed=18.5x    frame=19720 fps=444 q=-0.0 size=N/A time=00:13:42.48 bitrate=N/A speed=18.5x    frame=20005 fps=445 q=-0.0 size=N/A time=00:13:54.37 bitrate=N/A speed=18.6x    frame=20285 fps=446 q=-0.0 size=N/A time=00:14:06.05 bitrate=N/A speed=18.6x    frame=20540 fps=447 q=-0.0 size=N/A time=00:14:16.68 bitrate=N/A speed=18.6x    frame=20799 fps=448 q=-0.0 size=N/A time=00:14:27.49 bitrate=N/A speed=18.7x    frame=21043 fps=448 q=-0.0 size=N/A time=00:14:37.66 bitrate=N/A speed=18.7x    frame=21320 fps=449 q=-0.0 size=N/A time=00:14:49.22 bitrate=N/A speed=18.7x    frame=21581 fps=449 q=-0.0 size=N/A time=00:15:00.10 bitrate=N/A speed=18.7x    frame=21839 fps=450 q=-0.0 size=N/A time=00:15:10.86 bitrate=N/A speed=18.8x    frame=22097 fps=450 q=-0.0 size=N/A time=00:15:21.62 bitrate=N/A speed=18.8x    frame=22381 fps=451 q=-0.0 size=N/A time=00:15:33.47 bitrate=N/A speed=18.8x    frame=22656 fps=452 q=-0.0 size=N/A time=00:15:44.94 bitrate=N/A speed=18.9x    frame=22936 fps=453 q=-0.0 size=N/A time=00:15:56.62 bitrate=N/A speed=18.9x    frame=23138 fps=453 q=-0.0 size=N/A time=00:16:05.04 bitrate=N/A speed=18.9x    frame=23397 fps=453 q=-0.0 size=N/A time=00:16:15.84 bitrate=N/A speed=18.9x    frame=23677 fps=454 q=-0.0 size=N/A time=00:16:27.52 bitrate=N/A speed=18.9x    frame=23942 fps=455 q=-0.0 size=N/A time=00:16:38.58 bitrate=N/A speed=  19x    frame=24234 fps=456 q=-0.0 size=N/A time=00:16:50.75 bitrate=N/A speed=  19x    frame=24521 fps=457 q=-0.0 size=N/A time=00:17:02.73 bitrate=N/A speed=  19x    frame=24807 fps=458 q=-0.0 size=N/A time=00:17:14.65 bitrate=N/A speed=19.1x    frame=25068 fps=458 q=-0.0 size=N/A time=00:17:25.54 bitrate=N/A speed=19.1x    frame=25349 fps=459 q=-0.0 size=N/A time=00:17:37.26 bitrate=N/A speed=19.1x    frame=25632 fps=460 q=-0.0 size=N/A time=00:17:49.06 bitrate=N/A speed=19.2x    frame=25927 fps=461 q=-0.0 size=N/A time=00:18:01.37 bitrate=N/A speed=19.2x    frame=26186 fps=461 q=-0.0 size=N/A time=00:18:12.17 bitrate=N/A speed=19.2x    frame=26439 fps=461 q=-0.0 size=N/A time=00:18:22.72 bitrate=N/A speed=19.2x    frame=26697 fps=462 q=-0.0 size=N/A time=00:18:33.48 bitrate=N/A speed=19.3x    frame=26963 fps=462 q=-0.0 size=N/A time=00:18:44.58 bitrate=N/A speed=19.3x    frame=27227 fps=463 q=-0.0 size=N/A time=00:18:55.59 bitrate=N/A speed=19.3x    frame=27527 fps=464 q=-0.0 size=N/A time=00:19:08.10 bitrate=N/A speed=19.3x    frame=27808 fps=464 q=-0.0 size=N/A time=00:19:19.82 bitrate=N/A speed=19.4x    frame=28097 fps=465 q=-0.0 size=N/A time=00:19:31.87 bitrate=N/A speed=19.4x    frame=28345 fps=465 q=-0.0 size=N/A time=00:19:42.22 bitrate=N/A speed=19.4x    frame=28614 fps=466 q=-0.0 size=N/A time=00:19:53.44 bitrate=N/A speed=19.4x    frame=28900 fps=467 q=-0.0 size=N/A time=00:20:05.37 bitrate=N/A speed=19.5x    frame=29153 fps=467 q=-0.0 size=N/A time=00:20:15.92 bitrate=N/A speed=19.5x    frame=29397 fps=467 q=-0.0 size=N/A time=00:20:26.09 bitrate=N/A speed=19.5x    frame=29676 fps=467 q=-0.0 size=N/A time=00:20:37.73 bitrate=N/A speed=19.5x    frame=29939 fps=468 q=-0.0 size=N/A time=00:20:48.70 bitrate=N/A speed=19.5x    frame=30203 fps=468 q=-0.0 size=N/A time=00:20:59.75 bitrate=N/A speed=19.5x    frame=30487 fps=469 q=-0.0 size=N/A time=00:21:11.56 bitrate=N/A speed=19.5x    frame=30741 fps=469 q=-0.0 size=N/A time=00:21:22.15 bitrate=N/A speed=19.6x    frame=30966 fps=469 q=-0.0 size=N/A time=00:21:31.54 bitrate=N/A speed=19.5x    frame=31171 fps=468 q=-0.0 size=N/A time=00:21:40.09 bitrate=N/A speed=19.5x    frame=31402 fps=468 q=-0.0 size=N/A time=00:21:49.72 bitrate=N/A speed=19.5x    frame=31644 fps=468 q=-0.0 size=N/A time=00:21:59.81 bitrate=N/A speed=19.5x    frame=31892 fps=468 q=-0.0 size=N/A time=00:22:10.16 bitrate=N/A speed=19.5x    frame=32116 fps=468 q=-0.0 size=N/A time=00:22:19.50 bitrate=N/A speed=19.5x    frame=32373 fps=468 q=-0.0 size=N/A time=00:22:30.22 bitrate=N/A speed=19.5x    frame=32655 fps=469 q=-0.0 size=N/A time=00:22:41.98 bitrate=N/A speed=19.5x    frame=32895 fps=469 q=-0.0 size=N/A time=00:22:51.99 bitrate=N/A speed=19.5x    frame=33122 fps=468 q=-0.0 size=N/A time=00:23:01.46 bitrate=N/A speed=19.5x    frame=33358 fps=468 q=-0.0 size=N/A time=00:23:11.30 bitrate=N/A speed=19.5x    [Parsed_ssim_10 @ 000001be7e7f6d40] SSIM Y:0.993785 (22.065777) U:0.994732 (22.783733) V:0.994783 (22.825475) All:0.994109 (22.298347)
[out#0/null @ 000001be7e314580] video:14394KiB audio:261996KiB subtitle:0KiB other streams:0KiB global headers:0KiB muxing overhead: unknown
frame=33498 fps=468 q=-0.0 Lsize=N/A time=00:23:17.14 bitrate=N/A speed=19.5x    
